{"title":"Enemy at the Gates*2001*[DVD5][PAL][ENG, POL][multisub]","uid":5836896,"size":4681465856,"categoryP":"video","categoryS":"movies_dvdr","magnet":"?xt=urn:btih:31b2033658e1f545dac4d20bf23f66cc5585c80e&amp;dn=Enemy+at+the+Gates%2A2001%2A%5BDVD5%5D%5BPAL%5D%5BENG%2C+POL%5D%5Bmultisub%5D&amp;tr=udp%3A%2F%2Ftracker.openbittorrent.com%3A80&amp;tr=udp%3A%2F%2Fopen.demonii.com%3A1337&amp;tr=udp%3A%2F%2Ftracker.coppersurfer.tk%3A6969&amp;tr=udp%3A%2F%2Fexodus.desync.com%3A6969","seeders":0,"leechers":2,"uploader":"albedo040","files":1,"time":1284754148,"description":"Enemy at the Gates*2001*[DVD5][PAL][ENG, POL][multisub]\n\nGeneral information:\nCountry: USA, Germany, UK, Ireland \nRelease: 7 February 2001 (Berlin International Film Festival)\nGenre: Drama, History, Thriller, War \nDirector: Jean-Jacques Annaud \nScreenplay: Jean-Jacques Annaud\nOriginal Music: James Horner\nCinematography by: Robert Fraisse \nDuration: 2h 03mn\nLanguage: English, Polish\nSubtitles: English, Polish, Czech, Estonian, Icelandic, Lithuanian, Latvian, Magyar, Turkish \nRating: 8.1/10 - 30175 votes\n\nCast:\nJude Law  ...  Vassili Zaitsev  \nEd Harris  ...  Major KÃƒÂ¶nig  \nRachel Weisz  ...  Tania Chernova  \nJoseph Fiennes  ...  Commisar Danilov  \nBob Hoskins  ...  Nikita Khrushchev  \nRon Perlman  ...  Koulikov  \nEva Mattes  ...  Mother Filipov  \nGabriel Thomson  ...  Sacha Filipov (as Gabriel Marshall-Thomson)  \nMatthias Habich  ...  General Paulus  \nSophie Rois  ...  Ludmilla  \nIvan Shvedoff  ...  Volodya  \nMario Bandi  ...  Anton  \n\nPlot:\nTwo Russian and German snipers play a game of cat-and-mouse during the Battle of Stalingrad.\n\nSpecifications:\nGeneral\nFormat                           : MPEG-PS\nOverall bit rate                 : 5 208 Kbps\n\nVideo\nFormat                           : MPEG Video\nFormat version                   : Version 2\nFormat profile                   : Main@Main\nFormat settings, BVOP            : Yes\nFormat settings, Matrix          : Default\nBit rate mode                    : Variable\nBit rate                         : 4 464 Kbps\nNominal bit rate                 : 9 800 Kbps\nWidth                            : 720 pixels\nHeight                           : 576 pixels\nDisplay aspect ratio             : 16:9\nFrame rate                       : 25.000 fps\nStandard                         : PAL\n\nAudio 1\nFormat                           : AC-3\nFormat/Info                      : Audio Coding 3\nMode extension                   : CM (complete main)\nBit rate mode                    : Constant\nBit rate                         : 448 Kbps\nChannel(s)                       : 6 channels\nChannel positions                : Front: L C R, Side: L R, LFE\nSampling rate                    : 48.0 KHz\nBit depth                        : 16 bits\nStream size                      : 88.1 MiB (9%)\n\nAudio 2\nFormat                           : AC-3\nFormat/Info                      : Audio Coding 3\nFormat profile                   : Dolby Digital\nMode extension                   : CM (complete main)\nBit rate mode                    : Constant\nBit rate                         : 192 Kbps\nChannel(s)                       : 2 channels\nChannel positions                : Front: L R\nSampling rate                    : 48.0 KHz\nBit depth                        : 16 bits\nStream size                      : 37.7 MiB (4%)\n\nText \nFormat                           : RLE\nFormat/Info                      : Run-length encoding\n","torrent":{"xt":"urn:btih:31b2033658e1f545dac4d20bf23f66cc5585c80e","amp;dn":"Enemy+at+the+Gates%2A2001%2A%5BDVD5%5D%5BPAL%5D%5BENG%2C+POL%5D%5Bmultisub%5D","amp;tr":["udp%3A%2F%2Ftracker.openbittorrent.com%3A80","udp%3A%2F%2Fopen.demonii.com%3A1337","udp%3A%2F%2Ftracker.coppersurfer.tk%3A6969","udp%3A%2F%2Fexodus.desync.com%3A6969"],"infoHash":"31b2033658e1f545dac4d20bf23f66cc5585c80e","infoHashBuffer":{"type":"Buffer","data":[49,178,3,54,88,225,245,69,218,196,210,11,242,63,102,204,85,133,200,14]},"announce":[],"urlList":[]}}